<?xml version="1.0" encoding="UTF-8"?>
<!DOCTYPE svg PUBLIC "-//W3C//DTD SVG 1.1//EN" "http://www.w3.org/Graphics/SVG/1.1/DTD/svg11.dtd">
<!-- Creator: CorelDRAW 2021 (64 Bit) -->
<svg xmlns="http://www.w3.org/2000/svg" xml:space="preserve" width="647.487mm" height="165.523mm" version="1.1" style="shape-rendering:geometricPrecision; text-rendering:geometricPrecision; image-rendering:optimizeQuality; fill-rule:evenodd; clip-rule:evenodd"
viewBox="0 0 42701.32 10916.15"
 xmlns:xlink="http://www.w3.org/1999/xlink"
 xmlns:xodm="http://www.corel.com/coreldraw/odm/2003">
 <defs>
  <style type="text/css">
   <![CDATA[
    .fil0 {fill:#087696}
   ]]>
  </style>
 </defs>
 <g id="Camada_x0020_1">
  <metadata id="CorelCorpID_0Corel-Layer"/>
  <g id="_2294070824912">
   <path class="fil0" d="M2736.6 542.16l0 2246.07c-165.72,0 -211.82,25.01 -360.41,26.85l-1987.1 0.81c-143.64,20.19 -389.09,241.86 -389.09,411.23l0 2194.45c0,210.71 185.72,402.41 350.24,450.08l2386.36 40.44 0 2452.62c0,143.76 107.58,310.07 190.3,377.67 102.36,83.66 262.09,131.01 429.01,138.97 211.11,10.05 373.81,-17.15 542.33,-26.25l1136.09 0.13c217.95,0.3 466.62,32.97 603.91,-248.04 99.92,-204.53 93.13,-544.52 93.13,-784.65 145.6,-12.11 360.56,-259.73 475.87,-350.28 567.06,-445.36 827.87,-686.97 1350.73,-1205.14 38.65,-38.3 67.21,-62.79 102.06,-104.48 214.06,-256.09 508.24,-561.43 668.26,-829.12 354.98,-593.81 640.57,-1398.85 312.43,-2098.44 -205.95,-439.07 -695.19,-834.11 -1205.44,-834.11 -562.49,0 -1063.3,269.65 -1299.7,714.01 -87.7,164.85 -120.23,302.83 -120.23,551.01 161.65,-108.24 250,-223.39 398.09,-324.79 885.51,-606.27 2436.25,190.13 1018.34,2102.67l-311.93 359.31c-63.77,68.2 -101.83,78.74 -168.97,140.84 -403.03,372.74 -813.19,745.69 -1271.17,1052.36 -73.14,-138.23 -172.97,-277.12 -277.32,-393.91 -112.22,-125.6 -189.37,-242.21 -309.9,-361.35l-522.91 -483.95c-410.98,-313.65 -1135.94,-1179.19 -1135.94,-1910.46 0,-796.5 464.59,-1471.57 1187.57,-1471.57 850.79,0 747.79,271.59 1084.32,361.44 0,-290.1 38.88,-2186.94 -27.66,-2373.32 -60.46,-169.33 -258.38,-363.29 -437.05,-363.29l-1807.19 0c-395.52,0 -697.06,129.79 -697.06,542.16z"/>
   <path class="fil0" d="M9681.37 7590.21l1678.11 0 0 -3123.87c1119.28,0 944.6,82.98 1115.15,-201.51 49.44,-82.46 77.06,-184.02 149.88,-237.38 3.66,164.28 118.66,514.95 160.3,691.67 54.61,231.75 114.34,481.99 170.1,707.68 78.23,316.71 21.7,220.84 402.84,474.94 174.45,116.31 355.5,252.68 531.81,345.98 55.46,-82.83 191.73,-312.76 258.17,-361.44l0 1703.92 1678.11 0 0 -6996.41 -1678.11 0 0 3304.57c0,108.66 -294.91,523.42 -361.43,567.97 -5.49,-246.27 -490.53,-1836.61 -490.53,-2194.44 -1154.87,0 -863.3,-71.35 -1069.39,273.09 -567.94,949.19 -299.03,862.85 -866.88,862.85l0 -2814.04 -1678.11 0 0 6996.41z"/>
   <path class="fil0" d="M37047.39 7977.45l1755.55 0 0 -3201.3c0,-509.26 315.82,-968.23 833.03,-1051.63 618.93,-99.8 1067.55,170.37 1229.38,615.7 146.66,403.61 80.41,2117.15 80.41,2759.46l-2.24 699.3c-0.74,96.22 -19.92,178.48 79.69,178.48l1678.1 0 0 -3149.67c0,-1061.2 -286.96,-1956.37 -1230.07,-2410.13 -403.38,-194.08 -1053.61,-234.42 -1548.26,-110.04 -762.48,191.75 -1041.05,660.09 -1120.04,712.98l0 -2581.7 -1755.55 0 0 7538.56z"/>
   <path class="fil0" d="M25713.73 6531.7c-928.94,0 -1450.13,-1002.9 -1159.41,-1933.92 314.24,-1006.33 1558.21,-1095.13 2078.36,-430.78 106.46,135.98 166.99,234.79 227.33,418.1 37.8,114.87 102.43,434.34 92.62,575.92 -53.72,775 -492.26,1370.68 -1238.9,1370.68zm-567.97 1523.21c468.28,0 874.81,-100.1 1193,-304.39 392.47,-251.97 364.31,-285.9 614.19,-573.39l0 800.32 1729.74 0 0 -5679.74 -1729.74 0 0 774.51c-59.15,-43.34 -557.85,-851.97 -1600.65,-851.97 -495.54,0 -912.79,31.19 -1347.86,304.44 -314.18,197.33 -468.69,339.31 -695.26,621.39 -363.52,452.6 -574.95,1121.22 -589.71,1733.83 -2.91,121 -37.85,174.55 -23.43,304.64 82.86,747.36 120.84,1324.39 664.29,1996.64 353.88,437.74 999.32,873.71 1785.44,873.71z"/>
   <path class="fil0" d="M19233.66 3614.38c347.74,0 610.67,76.08 806.84,251.66 360.14,322.35 268.41,577.08 329.11,703.57l-2168.62 0c26.98,-56.24 31.04,-124.74 48,-184.34 57.2,-201.07 138.64,-326.55 280.65,-468.04 146.88,-146.32 422.55,-302.85 704.02,-302.85zm-2788.23 1497.39c0,765.31 242.78,1577.25 780.91,2110.59 1058.37,1048.97 2777.72,1086.65 3881.48,254.1l309.41 -284.37c97.05,-125.36 167.87,-198.63 259.06,-334.74 147.47,-220.13 208.04,-378.19 291.77,-613.62 30.29,-85.17 89.97,-176.73 -23.62,-176.73l-1729.74 0c-113.74,0 -50.79,87.57 -199.31,239.58 -270.5,276.84 -596.09,389.62 -1023.97,286.65 -473.96,-114.07 -790.44,-536.56 -790.44,-1042.57l3924.18 0 25.82 -542.16c0,-993.34 -431.69,-1797.31 -1080.18,-2276.04 -369.01,-272.42 -1027.37,-512.2 -1527.35,-512.2 -721.54,0 -1130.31,14.57 -1780.35,388.28 -231.84,133.28 -400.74,279.78 -588.87,469.63 -485.64,490.07 -728.82,1335.18 -728.82,2033.61z"/>
   <path class="fil0" d="M33200.66 981.05l0 1316.67 -697.06 0 0 1445.75 697.06 0 0 2271.89c0,530.87 144.98,1203.25 556.44,1508.91 204.86,152.19 411.77,274.62 682.18,350.51 459.72,129.02 1137.76,102.67 1652.89,102.67l0 -1497.38c-557.59,0 -1135.95,110.1 -1135.95,-413.07l0 -2323.52 1135.95 0 0 -1445.75 -1135.95 0 0 -1316.67c0,-59.48 -17.96,-77.44 -77.46,-77.44l-1600.65 0c-59.49,0 -77.45,17.96 -77.45,77.44z"/>
   <polygon class="fil0" points="29947.72,7977.45 31677.46,7977.45 31677.46,438.9 29947.72,438.9 "/>
   <path class="fil0" d="M3149.67 9836.27c-945.62,0 -2561.64,-326.4 -2342.47,-1516.31 79.97,-434.19 340.18,-618.8 483.65,-833.03 -96.83,25.85 -255.25,190.44 -329.17,264.61 -345.15,346.29 -626.06,688.74 -626.06,1258.59 0,770.66 888.34,1207.1 1564.36,1352.96 1525.56,329.19 3133.97,-183.56 4408.23,-879.39 702.49,-383.61 1307.85,-942.57 1751.93,-1604.28 110.32,-164.4 338.24,-566.04 382.02,-753.93 -58.44,39.13 -461.79,579.09 -690.8,780.77 -59.32,52.24 -81.88,57.5 -142.31,115.86 -49.28,47.59 -77.28,84.36 -129.7,128.46 -93.66,78.76 -179.34,143 -272.84,217.69 -1033.65,825.7 -2743.4,1468 -4056.84,1468z"/>
   <path class="fil0" d="M3278.76 10765.69c-205.15,0 -930.21,22.32 -1084.31,-51.64 35.13,87.06 -25.53,26.43 90.46,64.44 38.73,12.69 86.48,19.22 126.13,28.78 90.44,21.79 180.33,43.16 255.28,54.52 900.86,136.47 1691.59,3.56 2461.9,-260.37 501.56,-171.85 946.19,-421.46 1367.5,-723.69l-626.58 277.03c-233.7,109.23 -503.48,214.66 -768.24,290.26 -559.01,159.58 -1230.22,320.68 -1822.13,320.68z"/>
  </g>
 </g>
</svg>
