<?xml version="1.0" encoding="UTF-8"?>
<!DOCTYPE svg PUBLIC "-//W3C//DTD SVG 1.1//EN" "http://www.w3.org/Graphics/SVG/1.1/DTD/svg11.dtd">
<!-- Creator: CorelDRAW 2021 (64 Bit) -->
<svg xmlns="http://www.w3.org/2000/svg" xml:space="preserve" width="133.211mm" height="165.523mm" version="1.1" style="shape-rendering:geometricPrecision; text-rendering:geometricPrecision; image-rendering:optimizeQuality; fill-rule:evenodd; clip-rule:evenodd"
viewBox="0 0 1130.53 1404.76"
 xmlns:xlink="http://www.w3.org/1999/xlink"
 xmlns:xodm="http://www.corel.com/coreldraw/odm/2003">
 <defs>
  <style type="text/css">
   <![CDATA[
    .fil0 {fill:#087696}
   ]]>
  </style>
 </defs>
 <g id="Camada_x0020_1">
  <metadata id="CorelCorpID_0Corel-Layer"/>
  <g id="_2257971410368">
   <path class="fil0" d="M352.16 69.77l0 289.04c-21.33,0 -27.26,3.22 -46.38,3.45l-255.71 0.1c-18.48,2.6 -50.07,31.12 -50.07,52.92l0 282.4c0,27.12 23.9,51.78 45.07,57.92l307.09 5.2 0 315.62c0,18.5 13.84,39.9 24.49,48.6 13.17,10.77 33.73,16.86 55.21,17.88 27.17,1.29 48.1,-2.21 69.79,-3.38l146.2 0.02c28.05,0.04 60.05,4.24 77.71,-31.92 12.86,-26.32 11.98,-70.07 11.98,-100.97 18.74,-1.56 46.4,-33.42 61.24,-45.08 72.97,-57.31 106.54,-88.4 173.82,-155.08 4.97,-4.93 8.65,-8.08 13.13,-13.44 27.55,-32.96 65.4,-72.25 86,-106.7 45.68,-76.42 82.43,-180.01 40.21,-270.04 -26.5,-56.5 -89.46,-107.34 -155.12,-107.34 -72.38,0 -136.83,34.7 -167.25,91.88 -11.29,21.21 -15.47,38.97 -15.47,70.91 20.8,-13.93 32.17,-28.75 51.23,-41.8 113.95,-78.02 313.51,24.47 131.05,270.58l-40.14 46.24c-8.21,8.78 -13.1,10.13 -21.74,18.12 -51.86,47.97 -104.65,95.96 -163.58,135.42 -9.41,-17.79 -22.26,-35.66 -35.69,-50.69 -14.44,-16.16 -24.37,-31.17 -39.88,-46.5l-67.29 -62.28c-52.89,-40.36 -146.18,-151.74 -146.18,-245.85 0,-102.5 59.79,-189.37 152.82,-189.37 109.48,0 96.23,34.95 139.54,46.51 0,-37.33 5,-281.43 -3.56,-305.41 -7.78,-21.79 -33.25,-46.75 -56.24,-46.75l-232.56 0c-50.9,0 -89.7,16.7 -89.7,69.77z"/>
   <path class="fil0" d="M405.32 1265.79c-121.69,0 -329.65,-42 -301.44,-195.13 10.29,-55.87 43.78,-79.63 62.24,-107.2 -12.46,3.33 -32.85,24.51 -42.36,34.05 -44.42,44.56 -80.57,88.63 -80.57,161.96 0,99.17 114.32,155.34 201.31,174.11 196.32,42.36 403.3,-23.62 567.28,-113.16 90.4,-49.36 168.3,-121.3 225.45,-206.45 14.2,-21.16 43.53,-72.84 49.16,-97.02 -7.52,5.04 -59.43,74.52 -88.9,100.47 -7.63,6.72 -10.54,7.4 -18.31,14.91 -6.34,6.12 -9.94,10.86 -16.69,16.53 -12.05,10.14 -23.08,18.4 -35.11,28.01 -133.02,106.26 -353.04,188.91 -522.06,188.91z"/>
   <path class="fil0" d="M421.93 1385.39c-26.4,0 -119.7,2.87 -139.54,-6.65 4.52,11.2 -3.29,3.4 11.64,8.29 4.98,1.63 11.13,2.47 16.23,3.7 11.64,2.8 23.21,5.55 32.85,7.02 115.93,17.56 217.68,0.46 316.81,-33.51 64.54,-22.11 121.76,-54.24 175.98,-93.13l-80.63 35.65c-30.07,14.06 -64.79,27.62 -98.86,37.35 -71.94,20.54 -158.31,41.27 -234.48,41.27z"/>
  </g>
 </g>
</svg>
